<svg xmlns="http://www.w3.org/2000/svg" xmlns:xlink="http://www.w3.org/1999/xlink" version="1.1" id="Layer_1" x="0px" y="0px" width="70" height="53" viewBox="0 0 315.79 315.79" style="enable-background:new 0 0 315.79 315.79;" xml:space="preserve" data-inject-url="https://www.vr.com.br/lumis-theme/br/com/vr/portal/theme/vr-portal/img/svg/logo-vr.svg" class="vr-logo__image vr-svg">
<style type="text/css">
	.st0{fill:#00BE28;}
	.st1{fill:#FFFFFF;}
</style>
<g>
	<g>
		<g>
			<g>
				<path class="st0" d="M309.79,309.79H52.72C26.92,309.79,6,288.87,6,263.07V6h257.06c25.8,0,46.72,20.92,46.72,46.72V309.79z"></path>
			</g>
		</g>
	</g>
	<path class="st1" d="M147.21,238.07H90.14c-10.38,0-16.35-4.4-20.13-13.99l-35.85-92.14h38.36c10.38,0,16.67,4.56,19.97,14.31   l15.88,46.86h6.29l35.69-98.11h68.87c33.96,0,52.83,16.04,52.83,44.81c0,15.57-7.7,28.46-21.86,36.32   c2.04,4.09,4.56,10.06,8.33,20.13c10.22,27.04,16.35,35.38,22.8,41.82h-36.32c-16.35,0-26.26-7.23-32.23-22.8l-22.17-58.33   c2.67,0.63,5.97,0.79,9.12,0.79c13.68,0,21.23-4.72,21.23-13.36c0-8.33-6.13-12.42-18.71-12.42h-14.47L147.21,238.07z"></path>
</g>
</svg>